<mxfile host="Electron" agent="Mozilla/5.0 (Windows NT 10.0; Win64; x64) AppleWebKit/537.36 (KHTML, like Gecko) draw.io/24.7.17 Chrome/128.0.6613.36 Electron/32.0.1 Safari/537.36" version="24.7.17">
  <diagram name="Page-1" id="GaMnVcTFZbQmISjtJt2F">
    <mxGraphModel dx="941" dy="644" grid="1" gridSize="10" guides="1" tooltips="1" connect="1" arrows="1" fold="1" page="1" pageScale="1" pageWidth="850" pageHeight="1100" math="0" shadow="0">
      <root>
        <mxCell id="0" />
        <mxCell id="1" parent="0" />
        <mxCell id="NcPrsqhYa5tKnhE-XVC7-9" style="edgeStyle=orthogonalEdgeStyle;rounded=0;orthogonalLoop=1;jettySize=auto;html=1;exitX=1;exitY=0.5;exitDx=0;exitDy=0;entryX=0.5;entryY=0;entryDx=0;entryDy=0;" edge="1" parent="1" source="NcPrsqhYa5tKnhE-XVC7-1" target="NcPrsqhYa5tKnhE-XVC7-2">
          <mxGeometry relative="1" as="geometry" />
        </mxCell>
        <mxCell id="NcPrsqhYa5tKnhE-XVC7-1" value="Start" style="ellipse;whiteSpace=wrap;html=1;" vertex="1" parent="1">
          <mxGeometry x="50" y="30" width="180" height="100" as="geometry" />
        </mxCell>
        <mxCell id="NcPrsqhYa5tKnhE-XVC7-10" style="edgeStyle=orthogonalEdgeStyle;rounded=0;orthogonalLoop=1;jettySize=auto;html=1;exitX=1;exitY=0.5;exitDx=0;exitDy=0;entryX=0;entryY=0.5;entryDx=0;entryDy=0;" edge="1" parent="1" source="NcPrsqhYa5tKnhE-XVC7-2" target="NcPrsqhYa5tKnhE-XVC7-3">
          <mxGeometry relative="1" as="geometry" />
        </mxCell>
        <mxCell id="NcPrsqhYa5tKnhE-XVC7-2" value="input laborHours =&lt;div&gt;18&lt;/div&gt;" style="shape=parallelogram;perimeter=parallelogramPerimeter;whiteSpace=wrap;html=1;fixedSize=1;" vertex="1" parent="1">
          <mxGeometry x="280" y="130" width="180" height="80" as="geometry" />
        </mxCell>
        <mxCell id="NcPrsqhYa5tKnhE-XVC7-11" style="edgeStyle=orthogonalEdgeStyle;rounded=0;orthogonalLoop=1;jettySize=auto;html=1;exitX=0.5;exitY=1;exitDx=0;exitDy=0;entryX=0.5;entryY=0;entryDx=0;entryDy=0;" edge="1" parent="1" source="NcPrsqhYa5tKnhE-XVC7-3" target="NcPrsqhYa5tKnhE-XVC7-4">
          <mxGeometry relative="1" as="geometry" />
        </mxCell>
        <mxCell id="NcPrsqhYa5tKnhE-XVC7-3" value="input materialCost =&lt;div&gt;1700&lt;/div&gt;" style="shape=parallelogram;perimeter=parallelogramPerimeter;whiteSpace=wrap;html=1;fixedSize=1;" vertex="1" parent="1">
          <mxGeometry x="580" y="130" width="180" height="80" as="geometry" />
        </mxCell>
        <mxCell id="NcPrsqhYa5tKnhE-XVC7-12" style="edgeStyle=orthogonalEdgeStyle;rounded=0;orthogonalLoop=1;jettySize=auto;html=1;exitX=0.5;exitY=1;exitDx=0;exitDy=0;entryX=0.5;entryY=0;entryDx=0;entryDy=0;" edge="1" parent="1" source="NcPrsqhYa5tKnhE-XVC7-4" target="NcPrsqhYa5tKnhE-XVC7-5">
          <mxGeometry relative="1" as="geometry" />
        </mxCell>
        <mxCell id="NcPrsqhYa5tKnhE-XVC7-4" value="materialFee =&lt;div&gt;1700 * 1.2&lt;/div&gt;" style="rounded=0;whiteSpace=wrap;html=1;" vertex="1" parent="1">
          <mxGeometry x="580" y="290" width="180" height="80" as="geometry" />
        </mxCell>
        <mxCell id="NcPrsqhYa5tKnhE-XVC7-13" style="edgeStyle=orthogonalEdgeStyle;rounded=0;orthogonalLoop=1;jettySize=auto;html=1;exitX=0;exitY=0.5;exitDx=0;exitDy=0;entryX=0.5;entryY=1;entryDx=0;entryDy=0;" edge="1" parent="1" source="NcPrsqhYa5tKnhE-XVC7-5" target="NcPrsqhYa5tKnhE-XVC7-6">
          <mxGeometry relative="1" as="geometry" />
        </mxCell>
        <mxCell id="NcPrsqhYa5tKnhE-XVC7-5" value="totalCost = laborHours * 30 +&lt;div&gt;materialFee&lt;/div&gt;" style="rounded=0;whiteSpace=wrap;html=1;" vertex="1" parent="1">
          <mxGeometry x="580" y="480" width="180" height="80" as="geometry" />
        </mxCell>
        <mxCell id="NcPrsqhYa5tKnhE-XVC7-14" style="edgeStyle=orthogonalEdgeStyle;rounded=0;orthogonalLoop=1;jettySize=auto;html=1;exitX=0.5;exitY=0;exitDx=0;exitDy=0;entryX=1;entryY=0.5;entryDx=0;entryDy=0;" edge="1" parent="1" source="NcPrsqhYa5tKnhE-XVC7-6" target="NcPrsqhYa5tKnhE-XVC7-7">
          <mxGeometry relative="1" as="geometry" />
        </mxCell>
        <mxCell id="NcPrsqhYa5tKnhE-XVC7-6" value="output totalCost" style="shape=parallelogram;perimeter=parallelogramPerimeter;whiteSpace=wrap;html=1;fixedSize=1;" vertex="1" parent="1">
          <mxGeometry x="320" y="410" width="180" height="80" as="geometry" />
        </mxCell>
        <mxCell id="NcPrsqhYa5tKnhE-XVC7-15" style="edgeStyle=orthogonalEdgeStyle;rounded=0;orthogonalLoop=1;jettySize=auto;html=1;exitX=0.5;exitY=1;exitDx=0;exitDy=0;entryX=0.5;entryY=0;entryDx=0;entryDy=0;" edge="1" parent="1" source="NcPrsqhYa5tKnhE-XVC7-7" target="NcPrsqhYa5tKnhE-XVC7-8">
          <mxGeometry relative="1" as="geometry" />
        </mxCell>
        <mxCell id="NcPrsqhYa5tKnhE-XVC7-7" value="output &quot;End of program&quot;" style="shape=parallelogram;perimeter=parallelogramPerimeter;whiteSpace=wrap;html=1;fixedSize=1;" vertex="1" parent="1">
          <mxGeometry x="50" y="330" width="180" height="80" as="geometry" />
        </mxCell>
        <mxCell id="NcPrsqhYa5tKnhE-XVC7-8" value="Stop" style="ellipse;whiteSpace=wrap;html=1;" vertex="1" parent="1">
          <mxGeometry x="50" y="510" width="180" height="100" as="geometry" />
        </mxCell>
      </root>
    </mxGraphModel>
  </diagram>
</mxfile>
